<svg width="60" height="60" viewBox="0 0 60 60" fill="none" xmlns="http://www.w3.org/2000/svg">
<g clip-path="url(#clip0_77_3068)">
<path d="M29.9736 6.00001C29.619 5.99821 29.424 6.24001 29.3694 6.52321L27.9036 11.4684C24.4136 11.8596 21.1062 13.2327 18.3654 15.4284C16.8426 14.6016 15.3204 13.7706 13.7964 12.9486C13.5144 12.7968 13.2672 12.8082 13.0392 13.038C12.8106 13.2678 12.8754 13.6062 13.0044 13.8498L15.4458 18.3468C13.2389 21.091 11.8584 24.4065 11.4654 27.906C9.801 28.3998 8.1342 28.8894 6.4716 29.3862C6.1656 29.478 5.9994 29.661 6 29.985C6.0012 30.309 6.2856 30.5028 6.5496 30.5838L11.463 32.0394C11.8448 35.5467 13.2182 38.8726 15.4224 41.6274C14.5914 43.1586 13.7556 44.6898 12.9288 46.2222C12.777 46.5042 12.7884 46.7502 13.0188 46.9788C13.248 47.2068 13.5864 47.1432 13.83 47.0148L18.3522 44.5602C21.0956 46.7634 24.4088 48.1413 27.9054 48.5334C28.3986 50.1984 28.8894 51.8658 29.3862 53.5284C29.478 53.8344 29.661 54.0006 29.985 54C30.309 53.9988 30.5028 53.7144 30.5838 53.4504L32.0394 48.537C35.5546 48.1539 38.8869 46.7732 41.643 44.5578L46.1838 47.0238C46.5132 47.1918 46.7358 47.2212 46.9878 46.9716C47.2404 46.722 47.2074 46.4124 47.046 46.1736L44.574 41.6178C46.7734 38.8657 48.1449 35.545 48.5286 32.043L53.4684 30.579C53.82 30.465 53.9982 30.3288 54 29.9736C54.0018 29.619 53.76 29.424 53.4768 29.3694L48.5148 27.8988C48.1229 24.4059 46.7483 21.0958 44.5506 18.3528L47.0046 13.8342C47.172 13.5042 47.2014 13.2822 46.9518 13.0296C46.9001 12.974 46.8379 12.9292 46.7688 12.8978C46.6997 12.8664 46.6251 12.849 46.5492 12.8466C46.4076 12.847 46.2695 12.891 46.1538 12.9726L41.6262 15.4308C38.8741 13.2208 35.5481 11.8427 32.0394 11.4588L30.579 6.53161C30.465 6.18001 30.3288 6.00181 29.9736 6.00001ZM29.973 8.50561V27.1296C29.4878 27.1345 29.0118 27.2622 28.5894 27.501L25.602 23.7162L28.7304 12.8304L29.1504 11.3658L29.973 8.50561ZM32.484 12.96C35.3029 13.3677 37.9755 14.472 40.26 16.173L34.3818 19.3638L32.484 12.96ZM27.4578 12.975L25.5714 19.3392C23.6268 18.282 21.681 17.229 19.7358 16.1724C22.0064 14.4855 24.6593 13.387 27.4578 12.975ZM14.79 14.79L24.1512 24.132L24.1464 24.1458C22.9542 24.4992 21.7632 24.8538 20.5704 25.2066L16.9776 18.7308L16.2438 17.4078L14.79 14.79ZM45.1788 14.8008L43.173 16.8072L42.1692 17.8104L35.838 24.1422L35.793 24.129L34.7406 20.5794L41.2596 16.9704L42.0444 16.5372L42.5784 16.2408L45.1788 14.8008ZM43.812 19.7136C45.5079 21.9891 46.6119 24.6501 47.025 27.4578L40.6362 25.5642L43.812 19.7136ZM16.1886 19.7184L19.3626 25.5648C17.2302 26.1948 15.1002 26.8296 12.9684 27.4608C13.3835 24.653 14.4901 21.9924 16.1886 19.7184ZM36.2238 25.5858L47.169 28.7298L48.6168 29.1462L51.4938 29.973H32.8698C32.865 29.4827 32.7347 29.0018 32.4912 28.5762L36.2238 25.5858ZM27.1302 29.973L27.129 30C27.129 30.4788 27.249 30.9498 27.4776 31.3704L23.7 34.3446L19.9554 33.2718L12.8274 31.2318V31.2306L11.3646 30.8118L8.4768 29.985L27.1302 29.973ZM47.0406 32.4834C46.6333 35.2998 45.5304 37.9703 43.8318 40.2534L40.644 34.3794L47.0406 32.4834ZM12.9666 32.4852L19.3548 34.3782C18.2898 36.3372 17.2296 38.2974 16.1652 40.2564C14.4703 37.9718 13.371 35.301 12.9666 32.4852ZM31.3848 32.5134L34.3608 36.24L33.279 40.0176L31.23 47.172L30.8112 48.6354L29.9844 51.5232L29.9724 32.8692C30.4776 32.8704 31.002 32.7384 31.3848 32.5134ZM39.4266 34.7394L43.0326 41.2554L43.7634 42.5748L45.216 45.1992L43.1916 43.1742L42.1878 42.171L35.8236 35.8068L39.4266 34.7394ZM24.1416 35.8386C24.4968 37.0386 24.8538 38.2362 25.2084 39.4362L18.7368 43.0266L17.4126 43.761L14.7696 45.228L24.1416 35.8386ZM34.386 40.6182L40.278 43.818C37.9885 45.5221 35.3096 46.6271 32.4846 47.0328L34.386 40.6182ZM25.566 40.6434C26.196 42.7734 26.8296 44.9016 27.4602 47.031C24.6549 46.6161 21.9965 45.5111 19.7238 43.815L25.566 40.6434Z" fill="black"/>
<path d="M27.6001 4.8V0H28.7887L31.2649 3.2052V0H32.4001V4.8H31.1743L28.7353 1.6698V4.8H27.6001Z" fill="black"/>
<path d="M27.6001 58.4082L28.7599 58.32C28.8295 58.6256 28.9705 58.8502 29.1829 58.9938C29.3973 59.1374 29.6859 59.2092 30.0487 59.2092C30.4327 59.2092 30.7211 59.1458 30.9139 59.019C31.1099 58.8906 31.2079 58.7408 31.2079 58.5696C31.2079 58.46 31.1663 58.3672 31.0831 58.2912C31.0027 58.2132 30.8605 58.1458 30.6565 58.089C30.5169 58.051 30.1989 57.9834 29.7025 57.8862C29.0633 57.7622 28.6149 57.6094 28.3573 57.4278C27.9949 57.1722 27.8137 56.861 27.8137 56.4942C27.8137 56.2582 27.8983 56.0378 28.0675 55.833C28.2395 55.6262 28.4851 55.469 28.8043 55.3614C29.1263 55.2538 29.5143 55.2 29.9683 55.2C30.7091 55.2 31.2661 55.3276 31.6393 55.5828C32.0153 55.838 32.2125 56.1786 32.2309 56.6046L31.0393 56.646C30.9881 56.4076 30.8781 56.2368 30.7093 56.1336C30.5425 56.028 30.2913 55.9752 29.9557 55.9752C29.6093 55.9752 29.3381 56.0312 29.1421 56.1432C29.0161 56.2148 28.9531 56.3108 28.9531 56.4312C28.9531 56.5408 29.0121 56.6346 29.1301 56.7126C29.2805 56.8118 29.6457 56.9152 30.2257 57.0228C30.8057 57.1304 31.2337 57.2422 31.5097 57.3582C31.7893 57.4718 32.0069 57.6288 32.1625 57.8292C32.3209 58.0276 32.4001 58.2736 32.4001 58.5672C32.4001 58.8328 32.3061 59.0816 32.1181 59.3136C31.9301 59.5456 31.6643 59.7186 31.3207 59.8326C30.9771 59.9442 30.5491 60 30.0367 60C29.2903 60 28.7171 59.865 28.3171 59.595C27.9171 59.323 27.6781 58.9274 27.6001 58.4082Z" fill="black"/>
<path d="M55.2 32.4V27.6H59.88V28.4118H56.4744V29.4762H59.6424V30.285H56.4744V31.5912H60V32.4H55.2Z" fill="black"/>
<path d="M0.873 32.4L0 27.6H0.756L1.3074 30.897L1.9758 27.6H2.8542L3.495 30.9528L4.0566 27.6H4.8L3.912 32.4H3.1284L2.4 28.812L1.674 32.4H0.873Z" fill="black"/>
</g>
<defs>
<clipPath id="clip0_77_3068">
<rect width="60" height="60" fill="white"/>
</clipPath>
</defs>
</svg>
